# xmcd
#
# Track frame offsets:
#	150
#	17352
#	41252
#	64717
#	80048
#	96734
#	116479
#	131101
#	148081
#	166328
#	191763
#
# Disc length: 3010 seconds
#
# Revision: 7
# Processed by: cddbd v1.5.2PL0 Copyright (c) Steve Scherf et al.
# Submitted via: EasyCDDAExtractor 16.0.1.1
#
DISCID=990bc00b
DTITLE=Iris Dement - The Way I Should
DYEAR=1996
DGENRE=Country
TTITLE0=When My Mornin' Comes Around
TTITLE1=There's A Wall In Washington
TTITLE2=Wasteland Of The Free
TTITLE3=I'll Take My Sorrow Straight
TTITLE4=This Kind Of Happy
TTITLE5=The Way I Should
TTITLE6=Letter To Mom
TTITLE7=Keep Me God
TTITLE8=Quality Time
TTITLE9=Walkin' Home
TTITLE10=Trouble (Duet With Delbert Mcclinton)
EXTD=Submitted 6/27/97\n[Jmccoy@efn.org]
EXTT0=
EXTT1=
EXTT2=
EXTT3=
EXTT4=
EXTT5=
EXTT6=
EXTT7=
EXTT8=
EXTT9=
EXTT10=
PLAYORDER=
